<svg width="264" height="89" viewBox="0 0 264 89" fill="none" xmlns="http://www.w3.org/2000/svg">
<g filter="url(#filter0_d_69_922)">
<path fill-rule="evenodd" clip-rule="evenodd" d="M224.5 4C223.119 4 222 5.11929 222 6.5C222 7.88071 223.119 9 224.5 9H224.5V14.9643H218C213.582 14.9643 210 18.546 210 22.9643V67.9074C210 72.3256 213.582 75.9074 218 75.9074H218.5V78.1644C218.5 79.5451 219.619 80.6644 221 80.6644C222.381 80.6644 223.5 79.5451 223.5 78.1644V75.9074H246.5V78.1644C246.5 79.5451 247.619 80.6644 249 80.6644C250.381 80.6644 251.5 79.5451 251.5 78.1644V75.9074H252C256.418 75.9074 260 72.3256 260 67.9073V22.9643C260 18.546 256.418 14.9643 252 14.9643H244.5V9C245.881 8.99997 247 7.88069 247 6.5C247 5.11929 245.881 4 244.5 4H224.5ZM239.5 9H229.5V14.9643H239.5V9Z" fill="white"/>
<path d="M46.5312 20.1562C46.4271 20.3646 46.3229 20.5312 46.2188 20.6562C46.1354 20.7812 46.0625 20.875 46 20.9375C45.9167 21.0208 45.8438 21.0729 45.7812 21.0938C45.6146 21.1354 45.2812 21.1979 44.7812 21.2812C44.2812 21.3438 43.6042 21.3958 42.75 21.4375C42.125 21.4792 41.2708 21.5729 40.1875 21.7188C39.1042 21.8438 37.8646 22.0104 36.4688 22.2188C35.0938 22.4062 33.5938 22.6042 31.9688 22.8125C30.3438 23.0208 28.6562 23.1979 26.9062 23.3438C26.7396 26.2604 26.6146 29.2396 26.5312 32.2812C26.4688 35.3229 26.4167 38.3854 26.375 41.4688C26.3333 44.5312 26.2917 47.5938 26.25 50.6562C26.2292 53.6979 26.1875 56.6875 26.125 59.625C26.125 59.7292 26.0833 59.8333 26 59.9375C25.9167 60.0208 25.8542 60.0938 25.8125 60.1562C25.7083 60.5729 25.5208 60.9375 25.25 61.25C24.9792 61.5417 24.6979 61.6875 24.4062 61.6875C23.5312 61.6875 22.8542 61.5521 22.375 61.2812C21.9167 61.0104 21.5208 60.7188 21.1875 60.4062C21.0417 60.2188 20.8958 59.9479 20.75 59.5938C20.625 59.2188 20.5104 58.8125 20.4062 58.375C20.3021 57.9167 20.2083 57.4375 20.125 56.9375C20.0417 56.4167 19.9896 55.9271 19.9688 55.4688C19.9271 55.0104 19.8958 54.5625 19.875 54.125C19.8542 53.6875 19.8438 53.2396 19.8438 52.7812C19.8438 51.7812 19.875 50.8021 19.9375 49.8438C20 48.8854 20.0521 47.9896 20.0938 47.1562C20.1146 46.6354 20.1458 45.8958 20.1875 44.9375C20.25 43.9792 20.3229 42.8854 20.4062 41.6562C20.4896 40.4271 20.5833 39.1146 20.6875 37.7188C20.7917 36.3021 20.9167 34.8854 21.0625 33.4688C21.2292 32.0521 21.4062 30.6771 21.5938 29.3438C21.7812 27.9896 21.9896 26.7604 22.2188 25.6562C22.3229 25.3229 22.4167 25 22.5 24.6875C22.5833 24.3542 22.6562 24.0104 22.7188 23.6562C20.8021 23.7812 18.9271 23.8438 17.0938 23.8438C14.7396 23.8438 12.5 23.7083 10.375 23.4375C8.25 23.1458 6.4375 22.6458 4.9375 21.9375C4.75 21.8333 4.64583 21.6458 4.625 21.375C4.58333 21.1042 4.5 20.8229 4.375 20.5312C4.20833 20.3021 4.14583 20.0521 4.1875 19.7812C4.22917 19.4896 4.25 19.25 4.25 19.0625C4.22917 18.875 4.29167 18.75 4.4375 18.6875C4.5625 18.625 4.83333 18.6042 5.25 18.625C5.64583 18.625 6.19792 18.6458 6.90625 18.6875C7.63542 18.7292 8.58333 18.75 9.75 18.75C10.625 18.75 11.625 18.7292 12.75 18.6875C13.875 18.6458 15.1562 18.5729 16.5938 18.4688C17.3021 18.4062 18.3229 18.3125 19.6562 18.1875C21.0104 18.0417 22.5312 17.9062 24.2188 17.7812C25.9271 17.6354 27.7396 17.5104 29.6562 17.4062C31.5729 17.3021 33.4688 17.25 35.3438 17.25C36.0521 17.25 36.8438 17.2917 37.7188 17.375C38.5938 17.4375 39.4583 17.5312 40.3125 17.6562C41.1875 17.7812 41.9896 17.9271 42.7188 18.0938C43.4688 18.2604 44.0833 18.4271 44.5625 18.5938C44.875 18.7188 45.0625 18.8333 45.125 18.9375C45.1875 19.0208 45.2083 19.0938 45.1875 19.1562C45.1875 19.2188 45.1771 19.2708 45.1562 19.3125C45.1354 19.3542 45.1875 19.3958 45.3125 19.4375C45.4375 19.4792 45.5729 19.5104 45.7188 19.5312C45.8646 19.5521 46 19.5938 46.125 19.6562C46.25 19.6979 46.3542 19.7604 46.4375 19.8438C46.5208 19.9271 46.5521 20.0312 46.5312 20.1562ZM51.3125 39.5312C51.2917 40.1354 51.2292 40.7396 51.125 41.3438C51.0417 41.9271 50.9167 42.4896 50.75 43.0312C50.5833 43.5521 50.375 44.0208 50.125 44.4375C49.8958 44.8542 49.6354 45.1875 49.3438 45.4375C49.0938 45.6458 48.8958 45.75 48.75 45.75C48.6042 45.75 48.4792 45.7083 48.375 45.625C48.2917 45.5417 48.2188 45.4479 48.1562 45.3438C48.0938 45.2396 48.0104 45.1771 47.9062 45.1562C47.8229 45.1354 47.7083 45.1458 47.5625 45.1875C47.4375 45.2083 47.3021 45.2083 47.1562 45.1875C47.0312 45.1667 46.9062 45.0938 46.7812 44.9688C46.6771 44.8229 46.6042 44.5729 46.5625 44.2188C46.5208 43.8229 46.5312 43.3125 46.5938 42.6875C46.6771 42.0417 46.7188 41.4167 46.7188 40.8125C46.7188 40.2708 46.6562 39.8229 46.5312 39.4688C46.4271 39.0938 46.2292 38.9062 45.9375 38.9062C45.7917 38.9062 45.5312 39.0208 45.1562 39.25C44.8021 39.4583 44.4062 39.9167 43.9688 40.625C43.5312 41.3333 43.0938 42.3646 42.6562 43.7188C42.2188 45.0521 41.8646 46.8333 41.5938 49.0625C41.5938 51.9375 41.6146 54.25 41.6562 56C41.6979 57.75 41.7188 59.1146 41.7188 60.0938C41.7188 60.9271 41.6979 61.5208 41.6562 61.875C41.6146 62.2292 41.5104 62.4583 41.3438 62.5625C41.2396 62.625 41.0312 62.6979 40.7188 62.7812C40.4271 62.8854 40.1042 62.9792 39.75 63.0625C39.4167 63.1458 39.0938 63.2188 38.7812 63.2812C38.4688 63.3438 38.2708 63.3646 38.1875 63.3438C38.125 63.3229 38.0104 63.25 37.8438 63.125C37.6771 63.0208 37.5 62.8854 37.3125 62.7188C37.1458 62.5521 36.9896 62.375 36.8438 62.1875C36.6979 62.0208 36.6146 61.875 36.5938 61.75C36.5521 61.5417 36.5312 61.0729 36.5312 60.3438C36.5521 59.5938 36.5625 58.6979 36.5625 57.6562C36.5833 56.6146 36.6042 55.4792 36.625 54.25C36.6458 53 36.6562 51.7604 36.6562 50.5312C36.6562 49.7396 36.6771 48.8646 36.7188 47.9062C36.7812 46.9271 36.8438 45.9375 36.9062 44.9375C36.9896 43.9375 37.0729 42.9583 37.1562 42C37.2396 41.0417 37.3125 40.1875 37.375 39.4375C37.4583 38.6667 37.5208 38.0312 37.5625 37.5312C37.625 37.0104 37.6667 36.6979 37.6875 36.5938C37.7083 36.4271 37.7812 36.3646 37.9062 36.4062C38.0521 36.4479 38.1979 36.5208 38.3438 36.625C38.5104 36.7292 38.6562 36.8229 38.7812 36.9062C38.9062 36.9896 38.9896 36.9896 39.0312 36.9062C39.0729 36.7188 39.2292 36.6979 39.5 36.8438C39.7708 36.9688 40.0208 37.1146 40.25 37.2812C40.3333 37.3854 40.4271 37.4792 40.5312 37.5625C40.6562 37.625 40.7708 37.7188 40.875 37.8438C40.9792 37.9479 41.0625 38.0938 41.125 38.2812C41.2083 38.4688 41.25 38.7188 41.25 39.0312C41.25 39.3229 41.2708 39.7604 41.3125 40.3438C41.3542 40.9271 41.4062 41.6146 41.4688 42.4062C41.6979 41.6562 41.9688 40.8646 42.2812 40.0312C42.6146 39.1979 43.0104 38.4375 43.4688 37.75C43.9271 37.0417 44.4688 36.4583 45.0938 36C45.7188 35.5417 46.4688 35.3125 47.3438 35.3125C47.8229 35.3125 48.3021 35.4062 48.7812 35.5938C49.2604 35.7812 49.6875 36.0625 50.0625 36.4375C50.4583 36.7917 50.7708 37.2292 51 37.75C51.2292 38.2708 51.3333 38.8646 51.3125 39.5312ZM61.5938 21.2188C61.6146 21.6354 61.5938 22.1042 61.5312 22.625C61.4896 23.125 61.4062 23.6146 61.2812 24.0938C61.1771 24.5729 61.0208 25 60.8125 25.375C60.625 25.75 60.3958 26.0104 60.125 26.1562C59.4375 26.5104 58.8333 26.6875 58.3125 26.6875C57.8958 26.6875 57.5312 26.5938 57.2188 26.4062C56.9271 26.1979 56.6354 25.9688 56.3438 25.7188C55.9271 25.3854 55.5729 24.9479 55.2812 24.4062C55.0104 23.8646 54.875 23.3438 54.875 22.8438C54.875 22.4479 54.9375 21.9688 55.0625 21.4062C55.2083 20.8229 55.3854 20.2604 55.5938 19.7188C55.8021 19.1771 56.0208 18.6875 56.25 18.25C56.5 17.7917 56.7396 17.4792 56.9688 17.3125C57.3229 17.0208 57.6458 16.8646 57.9375 16.8438C58.25 16.8021 58.5 16.8125 58.6875 16.875C59.1458 16.9792 59.5521 17.1146 59.9062 17.2812C60.2604 17.4271 60.5521 17.6667 60.7812 18C61.0312 18.3125 61.2188 18.7292 61.3438 19.25C61.4688 19.7708 61.5521 20.4271 61.5938 21.2188ZM59.0312 35.1875C59.1354 35.2917 59.2083 35.6354 59.25 36.2188C59.3125 36.8021 59.3438 37.5625 59.3438 38.5C59.3438 39.125 59.3333 39.8021 59.3125 40.5312C59.2917 41.2604 59.2604 42.0104 59.2188 42.7812C59.1979 43.5521 59.1667 44.3333 59.125 45.125C59.0833 45.8958 59.0521 46.6354 59.0312 47.3438C58.9688 48.5104 58.9271 49.5938 58.9062 50.5938C58.9062 51.5729 58.9062 52.5208 58.9062 53.4375C58.9062 54.6458 58.9167 55.75 58.9375 56.75C58.9583 57.75 58.9688 58.5833 58.9688 59.25C58.9688 59.9792 58.9375 60.5417 58.875 60.9375C58.8333 61.3125 58.7292 61.5208 58.5625 61.5625C58.375 61.6042 58.2188 61.6979 58.0938 61.8438C57.9688 61.9688 57.8542 62.0938 57.75 62.2188C57.6458 62.3438 57.5208 62.4479 57.375 62.5312C57.25 62.6354 57.0938 62.6667 56.9062 62.625C56.8021 62.6042 56.625 62.5104 56.375 62.3438C56.125 62.1771 55.8542 61.9792 55.5625 61.75C55.2917 61.5 55.0312 61.2188 54.7812 60.9062C54.5312 60.5938 54.3646 60.2708 54.2812 59.9375C54.2396 59.7708 54.1979 59.4375 54.1562 58.9375C54.1354 58.4375 54.1146 57.8333 54.0938 57.125C54.0729 56.4167 54.0521 55.6354 54.0312 54.7812C54.0104 53.9062 53.9896 53.0312 53.9688 52.1562C53.9688 51.2604 53.9688 50.3854 53.9688 49.5312C53.9688 48.6771 53.9688 47.9062 53.9688 47.2188C53.9688 46.1562 54 45.0729 54.0625 43.9688C54.1458 42.8646 54.2292 41.8333 54.3125 40.875C54.4167 39.9167 54.5104 39.0833 54.5938 38.375C54.6979 37.6458 54.7708 37.1354 54.8125 36.8438C54.8958 36.3438 54.9792 35.9583 55.0625 35.6875C55.1667 35.3958 55.2708 35.1875 55.375 35.0625C55.5 34.9375 55.6146 34.8646 55.7188 34.8438C55.8438 34.8021 55.9688 34.7708 56.0938 34.75C56.3438 34.7083 56.625 34.6979 56.9375 34.7188C57.2708 34.7396 57.5833 34.7708 57.875 34.8125C58.1667 34.8542 58.4167 34.9167 58.625 35C58.8542 35.0625 58.9896 35.125 59.0312 35.1875ZM71.3125 35.75C71.2708 35.8958 71.2396 36.1875 71.2188 36.625C71.1979 37.0625 71.1667 37.6042 71.125 38.25C72.0208 38 72.9375 37.8021 73.875 37.6562C74.8125 37.5104 75.7708 37.4375 76.75 37.4375C77.8333 37.4375 78.9167 37.5625 80 37.8125C81.0833 38.0417 82.0938 38.4479 83.0312 39.0312C83.7604 39.4688 84.375 40.1667 84.875 41.125C85.3958 42.0833 85.8229 43.1146 86.1562 44.2188C86.3438 44.8646 86.5312 45.5833 86.7188 46.375C86.9062 47.1458 87 48 87 48.9375C87 49.7292 86.8958 50.5521 86.6875 51.4062C86.5 52.2604 86.1562 53.1458 85.6562 54.0625C85.1562 54.9583 84.4792 55.8854 83.625 56.8438C82.7708 57.7812 81.6771 58.7292 80.3438 59.6875C79.0521 60.625 77.8958 61.3438 76.875 61.8438C75.875 62.3229 75.0208 62.6562 74.3125 62.8438C73.6042 63.0312 73.0521 63.1146 72.6562 63.0938C72.2812 63.0938 72.0625 63.0729 72 63.0312C71.8125 62.9062 71.625 62.6667 71.4375 62.3125C71.25 61.9792 70.9896 61.6146 70.6562 61.2188C70.5521 61.0938 70.4583 60.9688 70.375 60.8438C70.2917 60.6979 70.1979 60.5312 70.0938 60.3438C70.0312 62.3438 69.9792 64.3021 69.9375 66.2188C69.9167 68.1354 69.9062 69.9271 69.9062 71.5938C69.9062 72.6354 69.9167 73.6042 69.9375 74.5C69.9583 75.4167 69.9896 76.2396 70.0312 76.9688C70.0312 77.2396 70.0417 77.5 70.0625 77.75C70.1042 78.0208 70.1146 78.2604 70.0938 78.4688C70.0938 78.6771 70.0521 78.8438 69.9688 78.9688C69.8854 79.0938 69.7292 79.1562 69.5 79.1562C69.0833 79.1562 68.7604 79.25 68.5312 79.4375C68.3229 79.6458 68.0729 79.9583 67.7812 80.375C67.6146 80.5625 67.4375 80.6979 67.25 80.7812C67.0625 80.8854 66.8646 80.8854 66.6562 80.7812C66.4688 80.6979 66.2708 80.5 66.0625 80.1875C65.875 79.8958 65.6979 79.4479 65.5312 78.8438C65.4688 78.5938 65.4062 78.2604 65.3438 77.8438C65.3021 77.4479 65.2604 76.9375 65.2188 76.3125C65.1979 75.7083 65.1771 74.9688 65.1562 74.0938C65.1562 73.2396 65.1562 72.2188 65.1562 71.0312L65.2812 60.2188C65.3229 57.4896 65.4271 54.8333 65.5938 52.25C65.7604 49.6667 65.9583 47.2396 66.1875 44.9688C65.6667 45.1771 65.1875 45.3333 64.75 45.4375C64.3125 45.5417 64.0417 45.5625 63.9375 45.5C63.7292 45.4167 63.5938 45.3229 63.5312 45.2188C63.4688 45.1146 63.4271 45.0208 63.4062 44.9375C63.3854 44.8333 63.3542 44.75 63.3125 44.6875C63.2917 44.6042 63.2083 44.5521 63.0625 44.5312C62.9167 44.5104 62.7917 44.4479 62.6875 44.3438C62.5833 44.2396 62.5104 44.1354 62.4688 44.0312C62.4479 43.9271 62.4583 43.8333 62.5 43.75C62.5625 43.6458 62.6771 43.5833 62.8438 43.5625C62.9896 43.5417 63.0104 43.4896 62.9062 43.4062C62.8021 43.3021 62.6979 43.1771 62.5938 43.0312C62.5104 42.8646 62.4896 42.6667 62.5312 42.4375C62.5729 42.1875 62.8333 41.9062 63.3125 41.5938C63.5625 41.3854 64 41.125 64.625 40.8125C65.25 40.4792 66 40.1146 66.875 39.7188C67.1042 38.0938 67.3333 36.7708 67.5625 35.75C67.8125 34.7083 68.0312 34.0729 68.2188 33.8438C68.3229 33.7396 68.3958 33.6458 68.4375 33.5625C68.4792 33.4792 68.5208 33.4062 68.5625 33.3438C68.6042 33.2812 68.6562 33.2292 68.7188 33.1875C68.7812 33.1458 68.8958 33.1042 69.0625 33.0625C69.2083 33.0417 69.3333 33.0729 69.4375 33.1562C69.5417 33.2396 69.6354 33.3542 69.7188 33.5C69.8229 33.625 69.9271 33.75 70.0312 33.875C70.1354 34 70.2604 34.0729 70.4062 34.0938C70.6979 34.1354 70.9271 34.2917 71.0938 34.5625C71.2812 34.8125 71.3542 35.2083 71.3125 35.75ZM77.3125 41.8438C76.375 41.8438 75.375 41.9479 74.3125 42.1562C73.25 42.3646 72.0729 42.7083 70.7812 43.1875L70.2188 56.75C70.4062 56.8125 70.6146 56.8542 70.8438 56.875C71.0729 56.875 71.3333 56.875 71.625 56.875C72.3125 56.875 73.1042 56.7812 74 56.5938C74.9167 56.4062 75.8438 56.125 76.7812 55.75C77.7188 55.3542 78.6458 54.8854 79.5625 54.3438C80.4792 53.7812 81.2917 53.1354 82 52.4062C82.7292 51.6771 83.3125 50.8646 83.75 49.9688C84.1875 49.0729 84.4167 48.0938 84.4375 47.0312C84.4583 46.4062 84.3125 45.7917 84 45.1875C83.7083 44.5625 83.2604 44 82.6562 43.5C82.0729 43 81.3333 42.6042 80.4375 42.3125C79.5417 42 78.5 41.8438 77.3125 41.8438ZM125.25 28.0938C125.25 29.2812 125.062 30.4792 124.688 31.6875C124.312 32.8958 123.76 34.0625 123.031 35.1875C122.323 36.3125 121.458 37.375 120.438 38.375C119.438 39.375 118.312 40.2604 117.062 41.0312C115.833 41.7812 114.5 42.3958 113.062 42.875C111.625 43.3542 110.125 43.6458 108.562 43.75C108.271 43.7917 107.979 43.7917 107.688 43.75C107.417 43.6875 107.167 43.625 106.938 43.5625C106.771 43.5 106.531 43.4062 106.219 43.2812C105.927 43.1562 105.74 43.0625 105.656 43C105.531 42.875 105.354 42.6875 105.125 42.4375C104.917 42.1667 104.76 41.9479 104.656 41.7812C104.594 41.6771 104.562 41.5104 104.562 41.2812C104.583 41.0312 104.594 40.75 104.594 40.4375C104.594 40.1458 104.583 39.8438 104.562 39.5312C104.562 39.1979 104.594 39.0104 104.656 38.9688C104.698 38.9271 104.792 38.9688 104.938 39.0938C105.104 39.1979 105.417 39.2812 105.875 39.3438C106.062 39.3854 106.271 39.3958 106.5 39.375C106.75 39.3542 106.99 39.3229 107.219 39.2812C107.948 39.2188 108.792 39.0104 109.75 38.6562C110.708 38.3021 111.688 37.8333 112.688 37.25C113.708 36.6667 114.708 35.9896 115.688 35.2188C116.667 34.4271 117.531 33.5833 118.281 32.6875C119.052 31.7917 119.667 30.8438 120.125 29.8438C120.604 28.8438 120.844 27.8333 120.844 26.8125C120.844 26.0208 120.688 25.2604 120.375 24.5312C120.062 23.7812 119.573 23.0417 118.906 22.3125C118.49 21.8333 117.677 21.4583 116.469 21.1875C115.26 20.9167 113.812 20.7812 112.125 20.7812C110.688 20.7812 109.146 20.8958 107.5 21.125C105.854 21.3542 104.219 21.7292 102.594 22.25C101.198 22.7083 100.01 23.1146 99.0312 23.4688C98.0521 23.8021 97.2083 24.1042 96.5 24.375C95.8125 24.6458 95.2396 24.875 94.7812 25.0625C94.3438 25.25 93.9583 25.4167 93.625 25.5625C93.2917 25.6875 92.9896 25.8125 92.7188 25.9375C92.4479 26.0417 92.1562 26.1354 91.8438 26.2188C91.5521 26.3229 91.3229 26.3854 91.1562 26.4062C90.9896 26.4062 90.8542 26.4062 90.75 26.4062C90.5833 26.3646 90.4583 26.3229 90.375 26.2812C90.3125 26.2188 90.2292 26.1562 90.125 26.0938C90.0417 26.0312 89.9583 26.0104 89.875 26.0312C89.7917 26.0312 89.7083 26.0417 89.625 26.0625C89.5625 26.0833 89.4896 26.0833 89.4062 26.0625C89.3229 26.0417 89.2396 25.9688 89.1562 25.8438C89.0312 25.6146 88.9479 25.4375 88.9062 25.3125C88.8438 25.1667 88.8125 25.0521 88.8125 24.9688C88.7917 24.8646 88.7917 24.7708 88.8125 24.6875C88.8333 24.6042 88.8646 24.5 88.9062 24.375C88.9271 24.25 88.9271 24.1354 88.9062 24.0312C88.8854 23.9271 88.875 23.8333 88.875 23.75C88.8542 23.6667 88.8646 23.5833 88.9062 23.5C88.9271 23.3958 89.0104 23.2812 89.1562 23.1562C89.4479 22.9271 89.9271 22.5729 90.5938 22.0938C91.2604 21.6146 92.0833 21.0938 93.0625 20.5312C94.0625 19.9479 95.1979 19.3542 96.4688 18.75C97.7604 18.1458 99.1562 17.5938 100.656 17.0938C102.177 16.5729 103.792 16.1458 105.5 15.8125C107.229 15.4583 109.031 15.2604 110.906 15.2188C112.781 15.1771 114.427 15.3854 115.844 15.8438C117.281 16.2812 118.531 16.875 119.594 17.625C120.656 18.3542 121.542 19.1979 122.25 20.1562C122.979 21.0938 123.562 22.0417 124 23C124.438 23.9583 124.75 24.8854 124.938 25.7812C125.125 26.6771 125.229 27.4479 125.25 28.0938ZM103.812 23.9062C103.792 24.0104 103.75 24.3646 103.688 24.9688C103.646 25.5729 103.583 26.3542 103.5 27.3125C103.438 28.25 103.365 29.3229 103.281 30.5312C103.198 31.7396 103.115 33 103.031 34.3125C102.948 35.625 102.865 36.9583 102.781 38.3125C102.719 39.6458 102.677 40.9271 102.656 42.1562C102.615 43.4062 102.583 44.6979 102.562 46.0312C102.542 47.3438 102.531 48.6771 102.531 50.0312C102.531 51.5938 102.562 53.1354 102.625 54.6562C102.708 56.1771 102.844 57.6458 103.031 59.0625C103.115 59.5417 103.083 59.9167 102.938 60.1875C102.792 60.4583 102.719 60.6979 102.719 60.9062C102.719 60.9688 102.75 61.0312 102.812 61.0938C102.875 61.1354 102.885 61.1771 102.844 61.2188C102.781 61.3229 102.667 61.3646 102.5 61.3438C102.354 61.3229 102.219 61.2604 102.094 61.1562C102.031 61.0938 101.979 61.0208 101.938 60.9375C101.896 60.8333 101.854 60.75 101.812 60.6875C101.771 60.625 101.719 60.5938 101.656 60.5938C101.594 60.5729 101.5 60.6146 101.375 60.7188C101.271 60.8229 101.146 60.9688 101 61.1562C100.875 61.3438 100.74 61.5417 100.594 61.75C100.448 61.9375 100.302 62.1042 100.156 62.25C100.01 62.4167 99.8646 62.5208 99.7188 62.5625C99.5938 62.6042 99.4375 62.6458 99.25 62.6875C99.0833 62.7292 98.9792 62.6667 98.9375 62.5C98.8958 62.4167 98.8542 62.3646 98.8125 62.3438C98.7708 62.3229 98.7188 62.2917 98.6562 62.25C98.5938 62.2292 98.5312 62.1875 98.4688 62.125C98.4271 62.0833 98.3958 61.9792 98.375 61.8125C98.2708 61.4583 98.1458 61.1979 98 61.0312C97.875 60.8438 97.8125 60.6354 97.8125 60.4062C97.7708 60.0521 97.6667 59.0312 97.5 57.3438C97.3542 55.6562 97.2812 53.3229 97.2812 50.3438C97.2812 49.1562 97.2917 47.8646 97.3125 46.4688C97.3542 45.0729 97.4271 43.5938 97.5312 42.0312C97.6354 40.6354 97.7604 39.125 97.9062 37.5C98.0521 35.875 98.1979 34.2812 98.3438 32.7188C98.5104 31.1562 98.6562 29.6979 98.7812 28.3438C98.9062 26.9896 99 25.875 99.0625 25C99.0833 24.8542 99.1354 24.7604 99.2188 24.7188C99.3021 24.6771 99.4167 24.6458 99.5625 24.625C99.7083 24.6042 99.8958 24.5833 100.125 24.5625C100.354 24.5208 100.625 24.4375 100.938 24.3125C101.188 24.1875 101.479 24.0625 101.812 23.9375C102.167 23.8125 102.49 23.7188 102.781 23.6562C103.094 23.5729 103.344 23.5417 103.531 23.5625C103.74 23.5833 103.833 23.6979 103.812 23.9062ZM134.656 20.2812C134.656 20.5729 134.635 21.1458 134.594 22C134.552 22.8542 134.5 23.8854 134.438 25.0938C134.375 26.2812 134.302 27.5938 134.219 29.0312C134.156 30.4479 134.083 31.875 134 33.3125C133.917 34.7292 133.844 36.1042 133.781 37.4375C133.719 38.7708 133.677 39.9375 133.656 40.9375C133.615 41.5417 133.583 42.2083 133.562 42.9375C133.562 43.6667 133.562 44.4479 133.562 45.2812C133.562 46.3854 133.562 47.5417 133.562 48.75C133.583 49.9375 133.604 51.1146 133.625 52.2812C133.646 53.4479 133.667 54.5729 133.688 55.6562C133.729 56.7188 133.76 57.6771 133.781 58.5312C133.802 59.3854 133.812 60.1042 133.812 60.6875C133.833 61.25 133.844 61.6042 133.844 61.75C133.844 62.0417 133.792 62.2604 133.688 62.4062C133.604 62.5729 133.49 62.6771 133.344 62.7188C133.219 62.7812 133.083 62.7917 132.938 62.75C132.792 62.7292 132.667 62.6875 132.562 62.625C132.438 62.5625 132.333 62.4896 132.25 62.4062C132.188 62.3229 132.135 62.2604 132.094 62.2188C132.052 62.1771 132.01 62.1667 131.969 62.1875C131.948 62.2083 131.927 62.2917 131.906 62.4375C131.844 62.9792 131.719 63.3854 131.531 63.6562C131.365 63.9271 131.177 64.1042 130.969 64.1875C130.781 64.2917 130.604 64.3229 130.438 64.2812C130.271 64.2396 130.167 64.1667 130.125 64.0625C130.083 63.9583 130.01 63.8958 129.906 63.875C129.823 63.8542 129.729 63.8333 129.625 63.8125C129.521 63.8125 129.417 63.7812 129.312 63.7188C129.229 63.6771 129.177 63.5729 129.156 63.4062C128.99 62.6979 128.885 61.8021 128.844 60.7188C128.802 59.6146 128.781 58.375 128.781 57C128.781 55.8125 128.792 54.5312 128.812 53.1562C128.833 51.7812 128.844 50.375 128.844 48.9375C128.844 48.1042 128.844 47.2812 128.844 46.4688C128.844 45.6354 128.823 44.7917 128.781 43.9375V41.9688C128.781 40.2812 128.823 38.5938 128.906 36.9062C128.99 35.1979 129.094 33.5625 129.219 32C129.344 30.4375 129.479 28.9688 129.625 27.5938C129.771 26.2188 129.896 25 130 23.9375C130.104 22.875 130.188 22.0104 130.25 21.3438C130.312 20.6771 130.333 20.2604 130.312 20.0938C130.292 19.9479 130.302 19.8438 130.344 19.7812C130.406 19.7188 130.479 19.6875 130.562 19.6875C130.667 19.6667 130.771 19.6562 130.875 19.6562C130.979 19.6354 131.073 19.6042 131.156 19.5625C131.302 19.4792 131.417 19.4583 131.5 19.5C131.604 19.5208 131.688 19.5625 131.75 19.625C131.812 19.6875 131.865 19.7604 131.906 19.8438C131.969 19.9062 132.052 19.9375 132.156 19.9375C132.281 19.9167 132.375 19.8854 132.438 19.8438C132.521 19.7812 132.583 19.7292 132.625 19.6875C132.688 19.625 132.74 19.5729 132.781 19.5312C132.844 19.4896 132.917 19.4792 133 19.5C133.167 19.5417 133.323 19.5729 133.469 19.5938C133.635 19.5938 133.719 19.5625 133.719 19.5C133.76 19.3333 133.823 19.2604 133.906 19.2812C133.99 19.2812 134.094 19.3333 134.219 19.4375C134.344 19.5417 134.448 19.6562 134.531 19.7812C134.615 19.8854 134.656 20.0521 134.656 20.2812ZM158.031 43.6875C158.052 44.4167 157.99 45.3125 157.844 46.375C157.698 47.4167 157.531 48.5417 157.344 49.75C157.156 50.9375 156.979 52.1562 156.812 53.4062C156.646 54.6562 156.562 55.8333 156.562 56.9375C156.562 57.6667 156.615 58.3646 156.719 59.0312C156.823 59.6771 157 60.2396 157.25 60.7188C157.396 60.9896 157.469 61.2292 157.469 61.4375C157.49 61.6458 157.479 61.8333 157.438 62C157.396 62.1458 157.354 62.2708 157.312 62.375C157.271 62.5 157.271 62.6146 157.312 62.7188C157.354 62.8229 157.344 62.9375 157.281 63.0625C157.219 63.2083 157.125 63.3333 157 63.4375C156.875 63.5625 156.729 63.6458 156.562 63.6875C156.417 63.75 156.281 63.7396 156.156 63.6562C155.927 63.5104 155.74 63.4271 155.594 63.4062C155.469 63.3854 155.354 63.3854 155.25 63.4062C155.167 63.4479 155.083 63.4896 155 63.5312C154.938 63.5729 154.854 63.5729 154.75 63.5312C154.396 63.3438 154.01 63.125 153.594 62.875C153.177 62.625 152.906 62.3542 152.781 62.0625C152.698 61.9375 152.615 61.7292 152.531 61.4375C152.469 61.1458 152.406 60.8021 152.344 60.4062C152.302 60.0104 152.26 59.5833 152.219 59.125C152.177 58.6667 152.146 58.2188 152.125 57.7812C151.438 59.0729 150.698 60.1458 149.906 61C149.135 61.8542 148.354 62.5312 147.562 63.0312C146.792 63.5521 146.021 63.9167 145.25 64.125C144.5 64.3333 143.812 64.4375 143.188 64.4375C142.542 64.4375 141.969 64.3542 141.469 64.1875C140.99 64.0208 140.615 63.8229 140.344 63.5938C139.323 62.5729 138.594 61.75 138.156 61.125C137.74 60.4792 137.552 59.9583 137.594 59.5625C137.698 58.2292 138.021 57 138.562 55.875C139.104 54.75 139.781 53.7188 140.594 52.7812C141.406 51.8229 142.312 50.9688 143.312 50.2188C144.333 49.4479 145.365 48.7708 146.406 48.1875C147.469 47.5833 148.51 47.0833 149.531 46.6875C150.552 46.2708 151.479 45.9375 152.312 45.6875C152.271 44.5625 152.219 43.5833 152.156 42.75C152.115 41.8958 152.042 41.2708 151.938 40.875C151.625 39.5833 151.146 38.625 150.5 38C149.854 37.3542 149.073 37.0312 148.156 37.0312C147.573 37.0312 146.979 37.25 146.375 37.6875C145.792 38.125 145.26 38.7188 144.781 39.4688C144.302 40.2188 143.906 41.0833 143.594 42.0625C143.302 43.0417 143.146 44.0729 143.125 45.1562C143.125 45.4271 143.135 45.6875 143.156 45.9375C143.177 46.1875 143.208 46.4479 143.25 46.7188C143.271 46.8646 143.219 46.9688 143.094 47.0312C142.99 47.0938 142.854 47.1458 142.688 47.1875C142.521 47.2083 142.344 47.2292 142.156 47.25C141.969 47.2708 141.812 47.3021 141.688 47.3438C141.583 47.3854 141.5 47.4167 141.438 47.4375C141.375 47.4375 141.312 47.4271 141.25 47.4062C141.188 47.3646 141.104 47.3021 141 47.2188C140.917 47.1354 140.792 47.0312 140.625 46.9062C140.458 46.7812 140.281 46.6771 140.094 46.5938C139.927 46.5104 139.771 46.4375 139.625 46.375C139.5 46.3125 139.385 46.2604 139.281 46.2188C139.198 46.1562 139.156 46.0833 139.156 46C139.156 44.7083 139.438 43.375 140 42C140.583 40.625 141.354 39.375 142.312 38.25C143.292 37.1042 144.417 36.1667 145.688 35.4375C146.979 34.7083 148.344 34.3438 149.781 34.3438C150.948 34.3438 151.958 34.5208 152.812 34.875C153.667 35.2292 154.396 35.6875 155 36.25C155.604 36.8125 156.094 37.4375 156.469 38.125C156.865 38.8125 157.167 39.5104 157.375 40.2188C157.604 40.9062 157.76 41.5625 157.844 42.1875C157.948 42.7917 158.01 43.2917 158.031 43.6875ZM152.375 49.25C151.75 49.4792 151.062 49.7812 150.312 50.1562C149.562 50.5312 148.802 50.9792 148.031 51.5C147.26 52 146.49 52.5833 145.719 53.25C144.948 53.9167 144.229 54.6562 143.562 55.4688C142.771 56.4062 142.198 57.2396 141.844 57.9688C141.49 58.6979 141.271 59.3229 141.188 59.8438C141.104 60.3438 141.125 60.7396 141.25 61.0312C141.375 61.3229 141.521 61.5 141.688 61.5625C142.333 61.8125 143 61.8438 143.688 61.6562C144.396 61.4479 145.094 61.0938 145.781 60.5938C146.49 60.0729 147.167 59.4583 147.812 58.75C148.479 58.0208 149.104 57.2812 149.688 56.5312C150.271 55.7604 150.792 55.0104 151.25 54.2812C151.708 53.5312 152.083 52.8854 152.375 52.3438V49.25ZM182.219 60.6562C182.219 60.9062 182.125 61.1875 181.938 61.5C181.771 61.7917 181.521 61.9375 181.188 61.9375C181 61.9375 180.854 61.8854 180.75 61.7812C180.646 61.6771 180.542 61.625 180.438 61.625C180.292 61.625 180.146 61.6771 180 61.7812C179.875 61.8854 179.656 61.9375 179.344 61.9375C178.927 61.9375 178.562 61.7917 178.25 61.5C177.958 61.1875 177.719 60.8021 177.531 60.3438C177.344 59.8646 177.198 59.3542 177.094 58.8125C177.01 58.25 176.969 57.7292 176.969 57.25C176.969 56.3125 177 55.25 177.062 54.0625C177.146 52.8542 177.229 51.625 177.312 50.375C177.417 49.1042 177.5 47.8438 177.562 46.5938C177.646 45.3438 177.688 44.1875 177.688 43.125C177.688 41.7083 177.594 40.6042 177.406 39.8125C177.219 39.0208 176.885 38.625 176.406 38.625C175.948 38.6875 175.479 39.0833 175 39.8125C174.521 40.5417 174.031 41.4792 173.531 42.625C173.031 43.75 172.542 45.0312 172.062 46.4688C171.583 47.8854 171.115 49.3438 170.656 50.8438C170.219 52.3229 169.802 53.7708 169.406 55.1875C169.01 56.5833 168.656 57.8333 168.344 58.9375C168.031 60.0417 167.76 60.9375 167.531 61.625C167.302 62.2917 167.146 62.625 167.062 62.625C166.896 62.625 166.771 62.5833 166.688 62.5C166.604 62.4375 166.521 62.3646 166.438 62.2812C166.375 62.1979 166.292 62.1146 166.188 62.0312C166.083 61.9688 165.927 61.9375 165.719 61.9375C165.531 61.9375 165.406 61.9583 165.344 62C165.281 62.0417 165.208 62.0938 165.125 62.1562C165.042 62.2188 164.938 62.2708 164.812 62.3125C164.688 62.3542 164.469 62.375 164.156 62.375C163.781 62.375 163.406 62.2812 163.031 62.0938C162.677 61.9062 162.5 61.6146 162.5 61.2188C162.5 60.9688 162.542 60.4583 162.625 59.6875C162.708 58.8958 162.802 57.9375 162.906 56.8125C163.031 55.6667 163.156 54.3958 163.281 53C163.427 51.5833 163.552 50.125 163.656 48.625C163.781 47.125 163.885 45.625 163.969 44.125C164.052 42.625 164.094 41.1979 164.094 39.8438C164.094 39.1771 164.083 38.5625 164.062 38C164.042 37.4167 164.031 36.8646 164.031 36.3438C164.031 36.2188 164.094 36.1562 164.219 36.1562C164.469 36.1562 164.656 36.2083 164.781 36.3125C164.927 36.3958 165.031 36.4896 165.094 36.5938C165.156 36.6979 165.188 36.8021 165.188 36.9062C165.208 36.9896 165.229 37.0312 165.25 37.0312C165.312 37.0312 165.385 37 165.469 36.9375C165.552 36.8542 165.635 36.7708 165.719 36.6875C165.823 36.6042 165.917 36.5312 166 36.4688C166.083 36.3854 166.156 36.3438 166.219 36.3438H166.531C166.844 36.3438 167.062 36.3021 167.188 36.2188C167.312 36.1146 167.396 36.0104 167.438 35.9062C167.5 35.7812 167.542 35.6771 167.562 35.5938C167.583 35.4896 167.646 35.4375 167.75 35.4375C167.812 35.4375 167.896 35.4896 168 35.5938C168.125 35.6771 168.24 35.8333 168.344 36.0625C168.469 36.2708 168.573 36.5521 168.656 36.9062C168.74 37.2604 168.781 37.6875 168.781 38.1875C168.781 38.8542 168.75 39.6979 168.688 40.7188C168.646 41.7396 168.583 42.8333 168.5 44C168.438 45.1458 168.375 46.3125 168.312 47.5C168.25 48.6667 168.208 49.7292 168.188 50.6875C168.417 49.7917 168.688 48.8021 169 47.7188C169.333 46.6146 169.708 45.5 170.125 44.375C170.562 43.25 171.031 42.1562 171.531 41.0938C172.031 40.0104 172.573 39.0521 173.156 38.2188C173.74 37.3854 174.354 36.7188 175 36.2188C175.646 35.6979 176.323 35.4375 177.031 35.4375C178.156 35.4375 179.073 35.6458 179.781 36.0625C180.51 36.4792 181.083 37.0521 181.5 37.7812C181.917 38.5104 182.198 39.3646 182.344 40.3438C182.51 41.3229 182.594 42.375 182.594 43.5C182.594 44.4583 182.552 45.4688 182.469 46.5312C182.385 47.5729 182.292 48.625 182.188 49.6875C182.104 50.7292 182.021 51.7604 181.938 52.7812C181.875 53.8021 181.844 54.7604 181.844 55.6562C181.844 56.7604 181.906 57.7604 182.031 58.6562C182.156 59.5312 182.219 60.1979 182.219 60.6562ZM207.156 60.6562C207.156 60.9062 207.062 61.1875 206.875 61.5C206.708 61.7917 206.458 61.9375 206.125 61.9375C205.938 61.9375 205.792 61.8854 205.688 61.7812C205.583 61.6771 205.479 61.625 205.375 61.625C205.229 61.625 205.083 61.6771 204.938 61.7812C204.812 61.8854 204.594 61.9375 204.281 61.9375C203.865 61.9375 203.5 61.7917 203.188 61.5C202.896 61.1875 202.656 60.8021 202.469 60.3438C202.281 59.8646 202.135 59.3542 202.031 58.8125C201.948 58.25 201.906 57.7292 201.906 57.25C201.906 56.3125 201.938 55.25 202 54.0625C202.083 52.8542 202.167 51.625 202.25 50.375C202.354 49.1042 202.438 47.8438 202.5 46.5938C202.583 45.3438 202.625 44.1875 202.625 43.125C202.625 41.7083 202.531 40.6042 202.344 39.8125C202.156 39.0208 201.823 38.625 201.344 38.625C200.885 38.6875 200.417 39.0833 199.938 39.8125C199.458 40.5417 198.969 41.4792 198.469 42.625C197.969 43.75 197.479 45.0312 197 46.4688C196.521 47.8854 196.052 49.3438 195.594 50.8438C195.156 52.3229 194.74 53.7708 194.344 55.1875C193.948 56.5833 193.594 57.8333 193.281 58.9375C192.969 60.0417 192.698 60.9375 192.469 61.625C192.24 62.2917 192.083 62.625 192 62.625C191.833 62.625 191.708 62.5833 191.625 62.5C191.542 62.4375 191.458 62.3646 191.375 62.2812C191.312 62.1979 191.229 62.1146 191.125 62.0312C191.021 61.9688 190.865 61.9375 190.656 61.9375C190.469 61.9375 190.344 61.9583 190.281 62C190.219 62.0417 190.146 62.0938 190.062 62.1562C189.979 62.2188 189.875 62.2708 189.75 62.3125C189.625 62.3542 189.406 62.375 189.094 62.375C188.719 62.375 188.344 62.2812 187.969 62.0938C187.615 61.9062 187.438 61.6146 187.438 61.2188C187.438 60.9688 187.479 60.4583 187.562 59.6875C187.646 58.8958 187.74 57.9375 187.844 56.8125C187.969 55.6667 188.094 54.3958 188.219 53C188.365 51.5833 188.49 50.125 188.594 48.625C188.719 47.125 188.823 45.625 188.906 44.125C188.99 42.625 189.031 41.1979 189.031 39.8438C189.031 39.1771 189.021 38.5625 189 38C188.979 37.4167 188.969 36.8646 188.969 36.3438C188.969 36.2188 189.031 36.1562 189.156 36.1562C189.406 36.1562 189.594 36.2083 189.719 36.3125C189.865 36.3958 189.969 36.4896 190.031 36.5938C190.094 36.6979 190.125 36.8021 190.125 36.9062C190.146 36.9896 190.167 37.0312 190.188 37.0312C190.25 37.0312 190.323 37 190.406 36.9375C190.49 36.8542 190.573 36.7708 190.656 36.6875C190.76 36.6042 190.854 36.5312 190.938 36.4688C191.021 36.3854 191.094 36.3438 191.156 36.3438H191.469C191.781 36.3438 192 36.3021 192.125 36.2188C192.25 36.1146 192.333 36.0104 192.375 35.9062C192.438 35.7812 192.479 35.6771 192.5 35.5938C192.521 35.4896 192.583 35.4375 192.688 35.4375C192.75 35.4375 192.833 35.4896 192.938 35.5938C193.062 35.6771 193.177 35.8333 193.281 36.0625C193.406 36.2708 193.51 36.5521 193.594 36.9062C193.677 37.2604 193.719 37.6875 193.719 38.1875C193.719 38.8542 193.688 39.6979 193.625 40.7188C193.583 41.7396 193.521 42.8333 193.438 44C193.375 45.1458 193.312 46.3125 193.25 47.5C193.188 48.6667 193.146 49.7292 193.125 50.6875C193.354 49.7917 193.625 48.8021 193.938 47.7188C194.271 46.6146 194.646 45.5 195.062 44.375C195.5 43.25 195.969 42.1562 196.469 41.0938C196.969 40.0104 197.51 39.0521 198.094 38.2188C198.677 37.3854 199.292 36.7188 199.938 36.2188C200.583 35.6979 201.26 35.4375 201.969 35.4375C203.094 35.4375 204.01 35.6458 204.719 36.0625C205.448 36.4792 206.021 37.0521 206.438 37.7812C206.854 38.5104 207.135 39.3646 207.281 40.3438C207.448 41.3229 207.531 42.375 207.531 43.5C207.531 44.4583 207.49 45.4688 207.406 46.5312C207.323 47.5729 207.229 48.625 207.125 49.6875C207.042 50.7292 206.958 51.7604 206.875 52.7812C206.812 53.8021 206.781 54.7604 206.781 55.6562C206.781 56.7604 206.844 57.7604 206.969 58.6562C207.094 59.5312 207.156 60.1979 207.156 60.6562Z" fill="white"/>
<path d="M233.375 50.5938C233.375 50.8229 233.385 51.0938 233.406 51.4062C233.427 51.7188 233.438 52.0729 233.438 52.4688C233.438 52.9688 233.365 53.5938 233.219 54.3438C233.073 55.0729 232.833 55.8438 232.5 56.6562C232.188 57.4688 231.76 58.2812 231.219 59.0938C230.677 59.9062 230.01 60.6354 229.219 61.2812C228.427 61.9271 227.49 62.4479 226.406 62.8438C225.344 63.2604 224.125 63.4688 222.75 63.4688C221.521 63.4688 220.26 63.2292 218.969 62.75C217.698 62.2917 216.531 61.5729 215.469 60.5938C214.427 59.5938 213.562 58.3333 212.875 56.8125C212.208 55.2708 211.875 53.4375 211.875 51.3125C211.875 49.9792 212.042 48.6667 212.375 47.375C212.729 46.0833 213.188 44.8646 213.75 43.7188C214.333 42.5729 215.01 41.5208 215.781 40.5625C216.573 39.5833 217.396 38.75 218.25 38.0625C219.125 37.3542 220.021 36.8021 220.938 36.4062C221.875 36.0104 222.781 35.8125 223.656 35.8125C225.177 35.8125 226.427 36.0521 227.406 36.5312C228.406 37.0104 229.198 37.6042 229.781 38.3125C230.365 39.0208 230.771 39.7812 231 40.5938C231.25 41.3854 231.375 42.1042 231.375 42.75C231.375 43.375 231.219 44.0938 230.906 44.9062C230.615 45.6979 230.125 46.4583 229.438 47.1875C228.75 47.8958 227.854 48.5 226.75 49C225.646 49.4792 224.292 49.7188 222.688 49.7188C221.833 49.7188 221.062 49.6042 220.375 49.375C219.708 49.125 219.115 48.8229 218.594 48.4688C218.073 48.0938 217.625 47.6979 217.25 47.2812C216.896 46.8438 216.594 46.4375 216.344 46.0625C215.969 47.3542 215.781 48.8646 215.781 50.5938C215.781 51.7812 215.948 52.8542 216.281 53.8125C216.635 54.75 217.115 55.5521 217.719 56.2188C218.323 56.8854 219.042 57.3958 219.875 57.75C220.708 58.1042 221.625 58.2812 222.625 58.2812C223.875 58.2812 224.969 58.0729 225.906 57.6562C226.844 57.2188 227.656 56.6771 228.344 56.0312C229.052 55.3854 229.656 54.6875 230.156 53.9375C230.677 53.1667 231.125 52.4688 231.5 51.8438C231.875 51.1979 232.198 50.6667 232.469 50.25C232.76 49.8333 233.042 49.6354 233.312 49.6562C233.438 49.6562 233.5 49.7604 233.5 49.9688C233.5 50.0729 233.49 50.1771 233.469 50.2812C233.448 50.3854 233.417 50.4896 233.375 50.5938ZM223.969 38.9688C223.594 38.9688 223.104 39.0521 222.5 39.2188C221.917 39.3646 221.292 39.6354 220.625 40.0312C219.979 40.4271 219.333 40.9688 218.688 41.6562C218.042 42.3229 217.479 43.1771 217 44.2188C217.292 44.0729 217.542 43.9479 217.75 43.8438C217.979 43.7396 218.135 43.6875 218.219 43.6875C218.26 43.6875 218.323 43.7292 218.406 43.8125C218.885 44.625 219.479 45.2083 220.188 45.5625C220.917 45.8958 221.729 46.0625 222.625 46.0625C223.333 46.0625 223.938 45.9479 224.438 45.7188C224.958 45.4688 225.385 45.1562 225.719 44.7812C226.052 44.4062 226.292 44 226.438 43.5625C226.583 43.1042 226.656 42.6562 226.656 42.2188C226.656 41.2812 226.417 40.5104 225.938 39.9062C225.458 39.2812 224.802 38.9688 223.969 38.9688ZM252.75 39.5312C252.729 40.1354 252.667 40.7396 252.562 41.3438C252.479 41.9271 252.354 42.4896 252.188 43.0312C252.021 43.5521 251.812 44.0208 251.562 44.4375C251.333 44.8542 251.073 45.1875 250.781 45.4375C250.531 45.6458 250.333 45.75 250.188 45.75C250.042 45.75 249.917 45.7083 249.812 45.625C249.729 45.5417 249.656 45.4479 249.594 45.3438C249.531 45.2396 249.448 45.1771 249.344 45.1562C249.26 45.1354 249.146 45.1458 249 45.1875C248.875 45.2083 248.74 45.2083 248.594 45.1875C248.469 45.1667 248.344 45.0938 248.219 44.9688C248.115 44.8229 248.042 44.5729 248 44.2188C247.958 43.8229 247.969 43.3125 248.031 42.6875C248.115 42.0417 248.156 41.4167 248.156 40.8125C248.156 40.2708 248.094 39.8229 247.969 39.4688C247.865 39.0938 247.667 38.9062 247.375 38.9062C247.229 38.9062 246.969 39.0208 246.594 39.25C246.24 39.4583 245.844 39.9167 245.406 40.625C244.969 41.3333 244.531 42.3646 244.094 43.7188C243.656 45.0521 243.302 46.8333 243.031 49.0625C243.031 51.9375 243.052 54.25 243.094 56C243.135 57.75 243.156 59.1146 243.156 60.0938C243.156 60.9271 243.135 61.5208 243.094 61.875C243.052 62.2292 242.948 62.4583 242.781 62.5625C242.677 62.625 242.469 62.6979 242.156 62.7812C241.865 62.8854 241.542 62.9792 241.188 63.0625C240.854 63.1458 240.531 63.2188 240.219 63.2812C239.906 63.3438 239.708 63.3646 239.625 63.3438C239.562 63.3229 239.448 63.25 239.281 63.125C239.115 63.0208 238.938 62.8854 238.75 62.7188C238.583 62.5521 238.427 62.375 238.281 62.1875C238.135 62.0208 238.052 61.875 238.031 61.75C237.99 61.5417 237.969 61.0729 237.969 60.3438C237.99 59.5938 238 58.6979 238 57.6562C238.021 56.6146 238.042 55.4792 238.062 54.25C238.083 53 238.094 51.7604 238.094 50.5312C238.094 49.7396 238.115 48.8646 238.156 47.9062C238.219 46.9271 238.281 45.9375 238.344 44.9375C238.427 43.9375 238.51 42.9583 238.594 42C238.677 41.0417 238.75 40.1875 238.812 39.4375C238.896 38.6667 238.958 38.0312 239 37.5312C239.062 37.0104 239.104 36.6979 239.125 36.5938C239.146 36.4271 239.219 36.3646 239.344 36.4062C239.49 36.4479 239.635 36.5208 239.781 36.625C239.948 36.7292 240.094 36.8229 240.219 36.9062C240.344 36.9896 240.427 36.9896 240.469 36.9062C240.51 36.7188 240.667 36.6979 240.938 36.8438C241.208 36.9688 241.458 37.1146 241.688 37.2812C241.771 37.3854 241.865 37.4792 241.969 37.5625C242.094 37.625 242.208 37.7188 242.312 37.8438C242.417 37.9479 242.5 38.0938 242.562 38.2812C242.646 38.4688 242.688 38.7188 242.688 39.0312C242.688 39.3229 242.708 39.7604 242.75 40.3438C242.792 40.9271 242.844 41.6146 242.906 42.4062C243.135 41.6562 243.406 40.8646 243.719 40.0312C244.052 39.1979 244.448 38.4375 244.906 37.75C245.365 37.0417 245.906 36.4583 246.531 36C247.156 35.5417 247.906 35.3125 248.781 35.3125C249.26 35.3125 249.74 35.4062 250.219 35.5938C250.698 35.7812 251.125 36.0625 251.5 36.4375C251.896 36.7917 252.208 37.2292 252.438 37.75C252.667 38.2708 252.771 38.8646 252.75 39.5312Z" fill="#00A48C"/>
</g>
<defs>
<filter id="filter0_d_69_922" x="0.125" y="4" width="263.875" height="84.9375" filterUnits="userSpaceOnUse" color-interpolation-filters="sRGB">
<feFlood flood-opacity="0" result="BackgroundImageFix"/>
<feColorMatrix in="SourceAlpha" type="matrix" values="0 0 0 0 0 0 0 0 0 0 0 0 0 0 0 0 0 0 127 0" result="hardAlpha"/>
<feOffset dy="4"/>
<feGaussianBlur stdDeviation="2"/>
<feComposite in2="hardAlpha" operator="out"/>
<feColorMatrix type="matrix" values="0 0 0 0 0 0 0 0 0 0 0 0 0 0 0 0 0 0 0.25 0"/>
<feBlend mode="normal" in2="BackgroundImageFix" result="effect1_dropShadow_69_922"/>
<feBlend mode="normal" in="SourceGraphic" in2="effect1_dropShadow_69_922" result="shape"/>
</filter>
</defs>
</svg>
