<svg width="2" height="147" viewBox="0 0 2 147" fill="none" xmlns="http://www.w3.org/2000/svg">
<path d="M1.204 146.382H0.4V143.022H1.204V146.382ZM1.204 141.296H0.4L0.4 137.936H1.204L1.204 141.296ZM1.204 136.21H0.4V132.85H1.204V136.21ZM1.204 131.124H0.4V127.764H1.204V131.124ZM1.204 126.038H0.4V122.678H1.204V126.038ZM1.204 120.952H0.4V117.592H1.204V120.952ZM1.204 115.866H0.4V112.506H1.204V115.866ZM1.204 110.781H0.4L0.4 107.421H1.204L1.204 110.781ZM1.204 105.695H0.4V102.335H1.204V105.695ZM1.204 100.609H0.4V97.2487H1.204V100.609ZM1.204 95.5227H0.4V92.1627H1.204V95.5227ZM1.204 90.4368H0.4V87.0768H1.204V90.4368ZM1.204 85.3508H0.4V81.9908H1.204V85.3508ZM1.204 80.2649H0.4V76.9049H1.204V80.2649ZM1.204 75.179H0.4V71.819H1.204V75.179ZM1.204 70.093H0.4V66.733H1.204V70.093ZM1.204 65.0071H0.4V61.6471H1.204V65.0071ZM1.204 59.9212H0.4V56.5612H1.204V59.9212ZM1.204 54.8352H0.4V51.4752H1.204V54.8352ZM1.204 49.7493H0.4V46.3893H1.204V49.7493ZM1.204 44.6633H0.4V41.3033H1.204V44.6633ZM1.204 39.5774H0.4V36.2174H1.204V39.5774ZM1.204 34.4915H0.4V31.1315H1.204V34.4915ZM1.204 29.4055H0.4V26.0455H1.204V29.4055ZM1.204 24.3196H0.4L0.4 20.9596H1.204L1.204 24.3196ZM1.204 19.2337H0.4V15.8737H1.204V19.2337ZM1.204 14.1477H0.4V10.7877H1.204V14.1477ZM1.204 9.06178H0.4V5.70178H1.204V9.06178ZM1.204 3.97584H0.4V0.615843H1.204V3.97584Z" fill="black"/>
</svg>
