<svg width="20" height="22" viewBox="0 0 20 22" fill="none" xmlns="http://www.w3.org/2000/svg">
<path d="M8.25322 12.3798C8.82063 12.3798 9.30637 12.1778 9.71043 11.7737C10.1145 11.3697 10.3165 10.8839 10.3165 10.3165C10.3165 9.74912 10.1145 9.26338 9.71043 8.85932C9.30637 8.45526 8.82063 8.25322 8.25322 8.25322C7.68581 8.25322 7.20008 8.45526 6.79601 8.85932C6.39195 9.26338 6.18992 9.74912 6.18992 10.3165C6.18992 10.8839 6.39195 11.3697 6.79601 11.7737C7.20008 12.1778 7.68581 12.3798 8.25322 12.3798ZM8.25322 2.06331C8.59711 2.06331 8.94099 2.0848 9.28488 2.12778C9.62876 2.17077 9.97264 2.23525 10.3165 2.32122V4.12661C10.3165 4.69402 10.5186 5.17976 10.9226 5.58382C11.3267 5.98789 11.8124 6.18992 12.3798 6.18992H13.4115V7.22157C13.4115 7.78898 13.6135 8.27472 14.0176 8.67878C14.4216 9.08284 14.9074 9.28488 15.4748 9.28488H16.4291C16.4635 9.47401 16.485 9.67605 16.4936 9.89097C16.5021 10.1059 16.5064 10.3165 16.5064 10.5229C16.5064 11.6577 16.2442 12.7839 15.7198 13.9015C15.1954 15.0191 14.5678 16.068 13.837 17.0481C13.1063 18.0281 12.3497 18.9007 11.5674 19.6659C10.7851 20.431 10.136 21.0371 9.62016 21.4842C9.43103 21.6561 9.2161 21.7851 8.97538 21.871C8.73466 21.957 8.49394 22 8.25322 22C8.0125 22 7.77179 21.957 7.53107 21.871C7.29035 21.7851 7.07542 21.6561 6.88628 21.4842C5.76866 20.4525 4.77999 19.4467 3.92028 18.4666C3.06057 17.4865 2.34271 16.5365 1.76671 15.6166C1.1907 14.6968 0.752247 13.8113 0.451348 12.9601C0.150449 12.109 0 11.2966 0 10.5229C0 7.94373 0.829621 5.88902 2.48886 4.35873C4.1481 2.82845 6.06956 2.06331 8.25322 2.06331ZM14.4431 5.15826H12.3798C12.0875 5.15826 11.8425 5.0594 11.6448 4.86166C11.447 4.66393 11.3482 4.41891 11.3482 4.12661C11.3482 3.83431 11.447 3.58929 11.6448 3.39156C11.8425 3.19383 12.0875 3.09496 12.3798 3.09496H14.4431V1.03165C14.4431 0.739351 14.542 0.494334 14.7397 0.2966C14.9375 0.0988667 15.1825 0 15.4748 0C15.7671 0 16.0121 0.0988667 16.2098 0.2966C16.4076 0.494334 16.5064 0.739351 16.5064 1.03165V3.09496H18.5698C18.8621 3.09496 19.1071 3.19383 19.3048 3.39156C19.5025 3.58929 19.6014 3.83431 19.6014 4.12661C19.6014 4.41891 19.5025 4.66393 19.3048 4.86166C19.1071 5.0594 18.8621 5.15826 18.5698 5.15826H16.5064V7.22157C16.5064 7.51387 16.4076 7.75889 16.2098 7.95662C16.0121 8.15436 15.7671 8.25322 15.4748 8.25322C15.1825 8.25322 14.9375 8.15436 14.7397 7.95662C14.542 7.75889 14.4431 7.51387 14.4431 7.22157V5.15826Z" fill="#3CB296"/>
</svg>
