<svg width="22" height="24" viewBox="0 0 22 24" fill="none" xmlns="http://www.w3.org/2000/svg">
<path fill-rule="evenodd" clip-rule="evenodd" d="M13.0599 0.175995C12.6315 -5.17605e-08 12.0873 0 11.0001 0C9.91283 0 9.36979 -5.17605e-08 8.94023 0.175995C8.36992 0.410128 7.91596 0.861178 7.67815 1.42996C7.56932 1.68816 7.52763 1.99037 7.51027 2.4292C7.50254 2.74715 7.41385 3.05788 7.25258 3.332C7.09131 3.60613 6.86278 3.83459 6.58861 3.99579C6.30926 4.15106 5.99525 4.23332 5.67566 4.23493C5.35607 4.23655 5.04124 4.15748 4.76034 4.00505C4.36898 3.79895 4.08531 3.68548 3.8051 3.64843C3.19208 3.56794 2.57206 3.73272 2.07989 4.10694C1.71169 4.38714 1.43959 4.85492 0.896551 5.78932C0.352356 6.72371 0.0814157 7.19033 0.020049 7.64768C-0.0610014 8.25672 0.105731 8.8727 0.483194 9.36016C0.654558 9.58247 0.896551 9.76889 1.27054 10.0028C1.82284 10.3467 2.17715 10.9325 2.17715 11.5786C2.17715 12.2247 1.82284 12.8106 1.2717 13.1533C0.896551 13.3884 0.654558 13.5748 0.482036 13.7971C0.295716 14.0379 0.158957 14.3132 0.0796608 14.6071C0.000364601 14.901 -0.0198964 15.2078 0.020049 15.5096C0.0814157 15.9658 0.352356 16.4335 0.896551 17.3679C1.44075 18.3023 1.71169 18.769 2.07989 19.0503C2.57082 19.4243 3.19144 19.5887 3.8051 19.5088C4.08531 19.4718 4.36898 19.3583 4.76034 19.1522C5.04138 18.9996 5.35643 18.9204 5.67624 18.922C5.99606 18.9236 6.31028 19.006 6.58976 19.1615C7.15249 19.4857 7.48595 20.082 7.51027 20.7281C7.52763 21.1681 7.56932 21.4691 7.67815 21.7273C7.91436 22.2947 8.36824 22.7462 8.94023 22.9813C9.36864 23.1573 9.91283 23.1573 11.0001 23.1573C12.0873 23.1573 12.6315 23.1573 13.0599 22.9813C13.6302 22.7471 14.0842 22.2961 14.322 21.7273C14.4308 21.4691 14.4725 21.1681 14.4899 20.7281C14.513 20.082 14.8476 19.4845 15.4115 19.1615C15.6909 19.0062 16.0049 18.9239 16.3245 18.9223C16.6441 18.9207 16.9589 18.9998 17.2398 19.1522C17.6311 19.3583 17.9148 19.4718 18.195 19.5088C18.8087 19.5899 19.4293 19.4243 19.9202 19.0503C20.2884 18.7701 20.5605 18.3023 21.1036 17.3679C21.6478 16.4335 21.9187 15.9669 21.9801 15.5096C22.0199 15.2077 21.9994 14.9009 21.9199 14.607C21.8404 14.313 21.7035 14.0378 21.5169 13.7971C21.3456 13.5748 21.1036 13.3884 20.7296 13.1545C20.1773 12.8106 19.823 12.2247 19.823 11.5786C19.823 10.9325 20.1773 10.3467 20.7284 10.0039C21.1036 9.76889 21.3456 9.58247 21.5181 9.36016C21.7044 9.1194 21.8412 8.84409 21.9205 8.55016C21.9998 8.25623 22.02 7.94949 21.9801 7.64768C21.9187 7.19149 21.6478 6.72371 21.1036 5.78932C20.5594 4.85492 20.2884 4.3883 19.9202 4.10694C19.4281 3.73272 18.8081 3.56794 18.195 3.64843C17.9148 3.68548 17.6311 3.79895 17.2398 4.00505C16.9587 4.15769 16.6437 4.23687 16.3239 4.23525C16.0041 4.23363 15.6898 4.15126 15.4104 3.99579C15.1364 3.83445 14.9081 3.60593 14.747 3.33181C14.586 3.05769 14.4975 2.74704 14.4899 2.4292C14.4725 1.98921 14.4308 1.68816 14.322 1.42996C14.2043 1.14829 14.0322 0.892576 13.8157 0.677417C13.5991 0.462257 13.3423 0.291872 13.0599 0.175995ZM11.0001 15.0522C12.9337 15.0522 14.5003 13.4972 14.5003 11.5786C14.5003 9.66005 12.9325 8.10504 11.0001 8.10504C9.06643 8.10504 7.49984 9.66005 7.49984 11.5786C7.49984 13.4972 9.06759 15.0522 11.0001 15.0522Z" fill="#00A48C"/>
</svg>
