<svg width="20" height="20" viewBox="0 0 20 20" fill="none" xmlns="http://www.w3.org/2000/svg">
<path d="M6.1731 19.239L8.51543 16.839C7.68276 16.659 6.90743 16.3293 6.2141 15.8823L6.1731 19.239Z" fill="#33415C"/>
<path d="M13.827 0.761353L11.4846 3.16102C12.3173 3.34135 13.0926 3.67069 13.786 4.11802L13.827 0.761353Z" fill="#33415C"/>
<path d="M3.16132 11.4847L0.760986 13.8263L4.11765 13.7857C3.67099 13.0923 3.34099 12.317 3.16132 11.4847Z" fill="#33415C"/>
<path d="M16.8386 8.51567L19.2383 6.17334L15.8816 6.21434C16.3286 6.90767 16.6583 7.68334 16.8386 8.51567Z" fill="#33415C"/>
<path d="M4.11839 6.21404L0.761719 6.17303L3.16139 8.51537C3.34172 7.6827 3.67105 6.90737 4.11839 6.21404Z" fill="#33415C"/>
<path d="M15.8816 13.786L19.2383 13.8267L16.8386 11.4847C16.6583 12.317 16.3286 13.0927 15.8816 13.786Z" fill="#33415C"/>
<path d="M8.51525 3.16099L6.17358 0.760986L6.21392 4.11765C6.90725 3.67065 7.68325 3.34099 8.51525 3.16099Z" fill="#33415C"/>
<path d="M11.4846 16.839L13.827 19.2387L13.786 15.8823C13.0926 16.329 12.3173 16.659 11.4846 16.839Z" fill="#33415C"/>
<path d="M4.25038 13.9874L2.92871 17.071L6.01271 15.7494C5.32538 15.2717 4.72838 14.6744 4.25038 13.9874Z" fill="#33415C"/>
<path d="M15.7493 6.01302L17.071 2.92902L13.9873 4.25068C14.6746 4.72868 15.2713 5.32568 15.7493 6.01302Z" fill="#33415C"/>
<path d="M3 9.99999C3 9.57399 3.04433 9.15866 3.11733 8.75299L0 9.99966L3.117 11.2463C3.044 10.8413 3 10.426 3 9.99999Z" fill="#33415C"/>
<path d="M20.0001 9.99999L16.8821 8.75299C16.9551 9.15866 16.9994 9.57399 16.9994 9.99999C16.9994 10.4263 16.9551 10.8417 16.8821 11.247L20.0001 9.99999Z" fill="#33415C"/>
<path d="M6.01295 4.25032L2.92896 2.92865L4.25062 6.01265C4.72829 5.32532 5.32529 4.72832 6.01295 4.25032Z" fill="#33415C"/>
<path d="M13.9873 15.7494L17.071 17.071L15.7493 13.9874C15.2713 14.6747 14.6746 15.2717 13.9873 15.7494Z" fill="#33415C"/>
<path d="M11.2469 3.11733L10.0003 0L8.75293 3.11733C9.1586 3.04433 9.57393 3 9.9996 3C10.4259 3 10.8413 3.04433 11.2469 3.11733Z" fill="#33415C"/>
<path d="M8.75293 16.8826L10.0003 20L11.2469 16.8826C10.8413 16.9556 10.4259 17 9.9996 17C9.57393 17 9.1586 16.9556 8.75293 16.8826Z" fill="#33415C"/>
<path d="M9.99959 3.66669C6.50226 3.66669 3.66626 6.50269 3.66626 10C3.66626 13.4977 6.50226 16.3334 9.99959 16.3334C13.4976 16.3334 16.3326 13.4977 16.3326 10C16.3326 6.50269 13.4976 3.66669 9.99959 3.66669ZM9.99959 15.6667C6.87493 15.6667 4.33293 13.1247 4.33293 10C4.33293 6.87535 6.87493 4.33335 9.99959 4.33335C13.1243 4.33335 15.6659 6.87535 15.6659 10C15.6659 13.1247 13.1243 15.6667 9.99959 15.6667Z" fill="#33415C"/>
<path d="M12.657 11.7477C10.9447 12.942 9.04571 12.935 7.34404 11.7477C7.13904 11.605 6.95471 11.8523 7.09337 12.081C7.61204 12.9353 8.65904 13.696 10.0007 13.696C11.3417 13.696 12.3887 12.9353 12.9077 12.081C13.0464 11.8527 12.862 11.605 12.657 11.7477Z" fill="#33415C"/>
<path d="M9.00141 9.77867C9.10307 9.88467 9.30541 9.68934 9.26641 9.58067C8.87374 8.50134 8.28274 7.96167 7.69141 7.96167C7.10041 7.96167 6.50874 8.50134 6.11674 9.58067C6.07774 9.68934 6.28007 9.88467 6.38174 9.77867C6.76207 9.377 7.21707 9.21734 7.69141 9.21734C8.16607 9.21734 8.62174 9.377 9.00141 9.77867Z" fill="#33415C"/>
<path d="M12.3079 7.96167C11.7176 7.96167 11.1256 8.50134 10.7329 9.58067C10.6939 9.68934 10.8969 9.88467 10.9979 9.77867C11.3783 9.377 11.8333 9.21734 12.3079 9.21734C12.7833 9.21734 13.2383 9.377 13.6186 9.77867C13.7203 9.88467 13.9219 9.68934 13.8836 9.58067C13.4909 8.50134 12.8996 7.96167 12.3079 7.96167Z" fill="#33415C"/>
</svg>
